<?xml version="1.0" encoding="utf-8"?>
<!-- Generator: Adobe Illustrator 21.0.0, SVG Export Plug-In . SVG Version: 6.00 Build 0)  -->
<svg version="1.1" id="Camada_1" xmlns="http://www.w3.org/2000/svg" xmlns:xlink="http://www.w3.org/1999/xlink" x="0px" y="0px"
	 viewBox="0 0 3000 1000" style="enable-background:new 0 0 3000 1000;" xml:space="preserve">
<style type="text/css">
	.st0{fill:#FFFFFF;}
</style>
<g>
	<g>
		<path class="st0" d="M797.9,401.8c-0.7-11.6-7.8-21.3-18.6-25.5L519.2,276.2c-6.8-2.6-14.2-2.6-21,0L240.7,376.3
			c-10.8,4.2-17.9,13.9-18.5,25.5c-0.7,11.5,5.3,22,15.5,27.4l4,2.1v123.9c-5.2,4-8.4,10.3-8.4,17v53.1c0,11.8,9.6,21.4,21.4,21.4
			s21.4-9.6,21.4-21.4v-53.1c0-7.1-3.6-13.7-9.3-17.7v-110l48.4,25.4l0,121.9l0,0.4c0,1.2,1.4,28.7,27.8,55.5
			c14.9,15,34.9,27,59.4,35.4c29.6,10.2,66.1,15.4,108.5,15.4c42.4,0,78.8-5.2,108.2-15.4c24.4-8.5,44.1-20.4,58.8-35.5
			c26-26.8,26.9-54.4,26.9-55.6l0-122.2l77.4-40.5C792.6,423.9,798.6,413.4,797.9,401.8z M509.7,568.2c4.7,0,9.3-1.1,13.5-3.3
			l156.6-82v108.6c-0.1,1.5-1.3,19.5-19.8,38.5c-19.2,19.7-60.6,43.3-149,43.3c-87.5,0-129.4-23.1-149.2-42.5
			c-19.3-19-21.2-37.5-21.4-39.4V483.1l155.7,81.7C500.3,567,505,568.2,509.7,568.2z M507.9,542.6L249.4,406.9
			c-1.4-0.8-2.2-2.1-2.1-3.7c0.1-1.6,1-2.8,2.5-3.4l257.5-100.1c0.5-0.2,0.9-0.3,1.4-0.3c0.5,0,1,0.1,1.4,0.3l260.1,100.2
			c1.5,0.6,2.4,1.8,2.5,3.4c0.1,1.6-0.7,2.9-2.1,3.7L511.5,542.6C510.4,543.2,509,543.2,507.9,542.6z"/>
		<path class="st0" d="M505.5,890c-52.7,0-103.9-10.3-152-30.7c-46.5-19.7-88.3-47.8-124.1-83.7c-35.9-35.9-64-77.6-83.7-124.1
			c-20.4-48.1-30.7-99.3-30.7-152c0-52.7,10.3-103.9,30.7-152c19.7-46.5,47.8-88.3,83.7-124.1s77.6-64,124.1-83.7
			c48.2-20.4,99.3-30.7,152-30.7s103.9,10.3,152,30.7c46.5,19.7,88.3,47.8,124.1,83.7c35.9,35.9,64,77.6,83.7,124.1
			c20.4,48.2,30.7,99.3,30.7,152c0,52.7-10.3,103.9-30.7,152c-19.7,46.5-47.8,88.3-83.7,124.1c-35.9,35.9-77.6,64-124.1,83.7
			C609.4,879.7,558.2,890,505.5,890z M505.5,132.3C303,132.3,138.3,297,138.3,499.5c0,202.5,164.7,367.2,367.2,367.2
			S872.7,702,872.7,499.5C872.7,297,708,132.3,505.5,132.3z"/>
	</g>
	<g>
		<path class="st0" d="M1087.5,183c35.3,0,64.5,12.5,87.5,37.6c23.1,25,34.6,55.7,34.6,92c0,36.3-11.5,66.9-34.6,92
			c-23.1,25-52.3,37.6-87.5,37.6h-99.9V183H1087.5z M1087.5,417.7c28.4,0,51.6-10.1,69.8-30.4c18.1-20.2,27.2-45.2,27.2-74.8
			c0-29.6-9.1-54.5-27.2-74.8c-18.1-20.2-41.4-30.4-69.8-30.4h-74v210.2H1087.5z"/>
		<path class="st0" d="M1275.1,212.6c-3.5,3.5-7.7,5.2-12.6,5.2c-4.9,0-9.1-1.7-12.6-5.2c-3.5-3.5-5.2-7.6-5.2-12.6
			c0-4.9,1.7-9.1,5.2-12.6c3.5-3.5,7.6-5.2,12.6-5.2c4.9,0,9.1,1.7,12.6,5.2c3.5,3.5,5.2,7.7,5.2,12.6
			C1280.3,205,1278.6,209.2,1275.1,212.6z M1250.4,442.1V257.1h24.4v185.1H1250.4z"/>
		<path class="st0" d="M1345.8,305.1c0,8.3,3.7,14.8,11.3,19.7c7.5,4.9,16.6,8.8,27.2,11.8c10.6,3,21.2,6.1,31.8,9.1
			c10.6,3,19.6,8.5,26.9,16.5c7.3,7.9,11,18.3,11,31.2c0,15.8-6.2,28.6-18.7,38.5c-12.5,9.9-28.6,14.8-48.3,14.8
			c-17.8,0-32.9-3.9-45.3-11.8c-12.5-7.9-21.2-18.1-26.1-30.7l20.7-12.2c3.5,9.6,9.7,17.2,18.7,22.8c9,5.6,19.7,8.3,32,8.3
			c12.1,0,22.2-2.4,30.4-7.2c8.1-4.8,12.2-12.3,12.2-22.4c0-8.4-3.7-15-11.1-20c-7.4-4.9-16.4-8.9-27-11.9
			c-10.6-3-21.2-6.1-31.8-9.1c-10.6-3-19.6-8.4-27-16.2c-7.4-7.8-11.1-18-11.1-30.5c0-15,6-27.6,18-37.8
			c12-10.1,27.1-15.2,45.3-15.2c15,0,28.3,3.4,39.6,10.2c11.3,6.8,19.7,16,25.2,27.6l-20.4,11.8c-7.2-17.3-22-25.9-44.4-25.9
			c-10.6,0-19.7,2.5-27.4,7.5C1349.7,288.7,1345.8,295.8,1345.8,305.1z"/>
		<path class="st0" d="M1575.3,446.6c-27.9,0-51.1-9.3-69.6-27.9c-18.5-18.6-27.8-41.6-27.8-69c0-27.4,9.3-50.4,27.8-69
			c18.5-18.6,41.7-27.9,69.6-27.9c18.3,0,34.7,4.4,49.2,13.1c14.6,8.8,25.2,20.5,31.8,35.3l-20,11.5c-4.9-11.1-12.9-19.9-23.9-26.5
			c-11-6.5-23.4-9.8-37.2-9.8c-20.5,0-37.8,7.1-51.8,21.3c-14.1,14.2-21.1,31.5-21.1,52c0,20.5,7,37.8,21.1,52
			c14.1,14.2,31.3,21.3,51.8,21.3c13.8,0,26.2-3.3,37-9.8c10.9-6.5,19.4-15.4,25.5-26.5l20.4,11.8c-7.7,14.8-18.9,26.5-33.7,35.2
			C1609.7,442.3,1593.3,446.6,1575.3,446.6z"/>
		<path class="st0" d="M1718.2,212.6c-3.5,3.5-7.7,5.2-12.6,5.2c-4.9,0-9.1-1.7-12.6-5.2c-3.5-3.5-5.2-7.6-5.2-12.6
			c0-4.9,1.7-9.1,5.2-12.6c3.5-3.5,7.6-5.2,12.6-5.2c4.9,0,9.1,1.7,12.6,5.2c3.5,3.5,5.2,7.7,5.2,12.6
			C1723.4,205,1721.6,209.2,1718.2,212.6z M1693.4,442.1V257.1h24.4v185.1H1693.4z"/>
		<path class="st0" d="M1868.8,252.6c26.4,0,48.9,9.4,67.5,28.1c18.6,18.8,27.9,41.7,27.9,68.8c0,27.1-9.3,50.1-27.9,68.8
			c-18.6,18.8-41.1,28.1-67.5,28.1c-32.8,0-57.7-13.6-74.8-40.7v110.3h-24.4V257.1h24.4v36.3C1811.1,266.2,1836,252.6,1868.8,252.6z
			 M1815.2,401.6c14.1,14.2,31.3,21.3,51.8,21.3c20.5,0,37.8-7.1,51.8-21.3c14.1-14.2,21.1-31.5,21.1-52c0-20.5-7-37.8-21.1-52
			c-14.1-14.2-31.3-21.3-51.8-21.3c-20.5,0-37.8,7.1-51.8,21.3c-14.1,14.2-21.1,31.5-21.1,52
			C1794.1,370.1,1801.1,387.4,1815.2,401.6z"/>
		<path class="st0" d="M2135.3,257.1h24.4v185.1h-24.4v-28.9c-13.8,22.2-34.5,33.3-62.2,33.3c-22.5,0-40.2-6.8-53.1-20.5
			c-13-13.7-19.4-32.1-19.4-55.3V257.1h24.4v113.6c0,16.5,4.4,29.4,13.1,38.5c8.8,9.1,21.2,13.7,37.2,13.7
			c17.8,0,32.2-5.6,43.3-16.8c11.1-11.2,16.7-28.6,16.7-52V257.1z"/>
		<path class="st0" d="M2211.6,442.1V171.9h24.4v270.2H2211.6z"/>
		<path class="st0" d="M2447,257.1h24.4v185.1H2447v-36.3c-17,27.1-42,40.7-74.8,40.7c-26.4,0-48.9-9.4-67.5-28.1
			c-18.6-18.7-27.9-41.7-27.9-68.8c0-27.1,9.3-50.1,27.9-68.8c18.6-18.7,41.1-28.1,67.5-28.1c32.8,0,57.7,13.6,74.8,40.7V257.1z
			 M2322.2,401.6c14.1,14.2,31.3,21.3,51.8,21.3c20.5,0,37.8-7.1,51.8-21.3c14.1-14.2,21.1-31.5,21.1-52c0-20.5-7-37.8-21.1-52
			c-14.1-14.2-31.3-21.3-51.8-21.3c-20.5,0-37.8,7.1-51.8,21.3c-14.1,14.2-21.1,31.5-21.1,52
			C2301.1,370.1,2308.2,387.4,2322.2,401.6z"/>
		<path class="st0" d="M2682.4,183h24.4v259.1h-24.4v-36.3c-17,27.1-42,40.7-74.8,40.7c-26.4,0-48.9-9.4-67.5-28.1
			c-18.6-18.7-27.9-41.7-27.9-68.8c0-27.1,9.3-50.1,27.9-68.8c18.6-18.7,41.1-28.1,67.5-28.1c32.8,0,57.7,13.6,74.8,40.7V183z
			 M2557.6,401.6c14.1,14.2,31.3,21.3,51.8,21.3c20.5,0,37.8-7.1,51.8-21.3c14.1-14.2,21.1-31.5,21.1-52c0-20.5-7-37.8-21.1-52
			c-14.1-14.2-31.3-21.3-51.8-21.3c-20.5,0-37.8,7.1-51.8,21.3c-14.1,14.2-21.1,31.5-21.1,52
			C2536.5,370.1,2543.6,387.4,2557.6,401.6z"/>
		<path class="st0" d="M2913.9,418.6c-18.9,18.6-41.9,27.9-69,27.9c-27.1,0-50.2-9.3-69-27.9c-18.9-18.6-28.3-41.6-28.3-69
			c0-27.4,9.4-50.4,28.3-69c18.9-18.6,41.9-27.9,69-27.9c27.1,0,50.2,9.3,69,27.9c18.9,18.6,28.3,41.6,28.3,69
			C2942.2,377,2932.8,400,2913.9,418.6z M2793,401.6c14.1,14.2,31.3,21.3,51.8,21.3c20.5,0,37.8-7.1,51.8-21.3
			c14.1-14.2,21.1-31.5,21.1-52c0-20.5-7-37.8-21.1-52c-14.1-14.2-31.3-21.3-51.8-21.3c-20.5,0-37.8,7.1-51.8,21.3
			c-14.1,14.2-21.1,31.5-21.1,52C2771.9,370.1,2779,387.4,2793,401.6z"/>
		<path class="st0" d="M1069,787.1c-23.7,0-44-5.6-60.9-16.8c-16.9-11.2-28.7-26.7-35.3-46.5l22.2-13c4.7,16,13.3,28.6,25.9,37.6
			c12.6,9,28.7,13.5,48.5,13.5c19.2,0,34.2-4.3,45-12.8s16.1-19.8,16.1-33.9c0-13.6-4.9-23.8-14.8-30.7
			c-9.9-6.9-26.2-14.1-48.9-21.5c-26.9-8.9-44.7-16-53.3-21.5c-19.7-11.8-29.6-29-29.6-51.4c0-22,7.6-39.3,22.9-52
			c15.3-12.7,34.2-19.1,56.6-19.1c20.2,0,37.8,5.2,52.6,15.7c14.8,10.5,25.8,23.9,32.9,40.2l-21.8,12.2
			c-11.8-28.6-33.1-42.9-63.7-42.9c-16,0-29,3.9-38.9,11.8c-9.9,7.9-14.8,18.9-14.8,32.9c0,12.8,4.4,22.5,13.3,28.9
			c8.9,6.4,23.6,13,44,19.6c9.4,3.2,16.1,5.5,20.2,6.8c4.1,1.4,10,3.6,17.8,6.7c7.8,3.1,13.5,5.8,17.2,8.1c3.7,2.3,8.2,5.6,13.5,9.6
			c5.3,4.1,9.1,8.1,11.5,12.2c2.3,4.1,4.4,9,6.3,14.8c1.9,5.8,2.8,12,2.8,18.7c0,22-8,39.5-24.1,52.7
			C1116.2,780.5,1095.1,787.1,1069,787.1z"/>
		<path class="st0" d="M1283.7,593.1c22.5,0,40.2,6.8,53.1,20.5c13,13.7,19.4,32.1,19.4,55.3v113.6h-24.4V669
			c0-16.5-4.4-29.4-13.1-38.5c-8.8-9.1-21.2-13.7-37.2-13.7c-17.8,0-32.2,5.6-43.3,16.8c-11.1,11.2-16.7,28.6-16.7,52v97h-24.4
			V523.6h24.4v102.9C1235.3,604.2,1256,593.1,1283.7,593.1z"/>
		<path class="st0" d="M1562.7,597.6h24.4v185.1h-24.4v-36.3c-17,27.1-42,40.7-74.8,40.7c-26.4,0-48.9-9.4-67.5-28.1
			c-18.6-18.8-27.9-41.7-27.9-68.8c0-27.1,9.3-50.1,27.9-68.8c18.6-18.8,41.1-28.1,67.5-28.1c32.8,0,57.7,13.6,74.8,40.7V597.6z
			 M1438,742.1c14.1,14.2,31.3,21.3,51.8,21.3c20.5,0,37.8-7.1,51.8-21.3c14.1-14.2,21.1-31.5,21.1-52c0-20.5-7-37.8-21.1-52
			c-14.1-14.2-31.3-21.3-51.8-21.3c-20.5,0-37.8,7.1-51.8,21.3c-14.1,14.2-21.1,31.5-21.1,52C1416.9,710.6,1423.9,727.9,1438,742.1z
			"/>
		<path class="st0" d="M1639,782.7V512.5h24.4v270.2H1639z"/>
		<path class="st0" d="M1870.5,759.1c-18.9,18.6-41.9,27.9-69,27.9c-27.1,0-50.2-9.3-69-27.9c-18.9-18.6-28.3-41.6-28.3-69
			s9.4-50.4,28.3-69c18.9-18.6,41.9-27.9,69-27.9c27.1,0,50.2,9.3,69,27.9c18.9,18.6,28.3,41.6,28.3,69S1889.4,740.5,1870.5,759.1z
			 M1749.7,742.1c14.1,14.2,31.3,21.3,51.8,21.3c20.5,0,37.8-7.1,51.8-21.3c14.1-14.2,21.1-31.5,21.1-52c0-20.5-7-37.8-21.1-52
			c-14.1-14.2-31.3-21.3-51.8-21.3c-20.5,0-37.8,7.1-51.8,21.3c-14.1,14.2-21.1,31.5-21.1,52
			C1728.6,710.6,1735.6,727.9,1749.7,742.1z"/>
		<path class="st0" d="M2136.8,593.1c20.7,0,37.4,6.7,50.2,20c12.7,13.3,19.1,31.3,19.1,54v115.5h-24.4V667.2
			c0-16-4.1-28.4-12.4-37.2c-8.3-8.8-19.2-13.1-32.8-13.1c-15.3,0-27.7,5.1-37.2,15.4c-9.5,10.2-14.3,26.2-14.3,47.9v102.5h-24.4
			V667.2c0-16.3-3.9-28.7-11.7-37.4c-7.8-8.6-18.3-13-31.6-13c-14.8,0-27.4,5.2-37.8,15.5c-10.4,10.4-15.5,26.3-15.5,47.7v102.5
			h-24.4V597.6h24.4v27c13.3-21,32.2-31.5,56.6-31.5c26.6,0,45.4,11.2,56.3,33.7C2090.2,604.4,2110.2,593.1,2136.8,593.1z"/>
	</g>
</g>
</svg>
