<svg id="Camada_2" data-name="Camada 2" xmlns="http://www.w3.org/2000/svg" viewBox="0 0 457.12 407.66"><defs><style>.cls-1{fill:#fff;}</style></defs><title>Home</title><path class="cls-1" d="M474.19,240,264.39,45.77a18,18,0,0,0-24.4-.1L26.61,240a14.73,14.73,0,0,0-1,20.81h0a14.73,14.73,0,0,0,20.81,1l24.31-22.13v209H429.87V239.09l24.3,22.49a14.73,14.73,0,0,0,20.82-.8h0A14.73,14.73,0,0,0,474.19,240ZM220,419.16V291a8,8,0,0,1,8-8h44.7a8,8,0,0,1,8,8V419.16Zm180.41,0H310.17v-147a18.71,18.71,0,0,0-18.71-18.71H209.17a18.71,18.71,0,0,0-18.71,18.71v147H100.22V212.79L242.83,82.93a13.62,13.62,0,0,1,18.42.08L400.41,211.82Z" transform="translate(-21.79 -40.96)"/></svg>