<?xml version="1.0" encoding="utf-8"?>
<!-- Generator: Adobe Illustrator 21.0.0, SVG Export Plug-In . SVG Version: 6.00 Build 0)  -->
<svg version="1.1" xmlns="http://www.w3.org/2000/svg" xmlns:xlink="http://www.w3.org/1999/xlink" x="0px" y="0px"
	 viewBox="0 0 500 500" style="enable-background:new 0 0 500 500;" xml:space="preserve">
<style type="text/css">
	.st0{fill:#FFFFFF;}
	.st1{display:none;}
	.st2{display:inline;fill:#FFFFFF;}
	.st3{display:inline;}
</style>
<g id="Camada_1">
	<g>
		<path class="st0" d="M339.4,417.9c-27.1,15.1-58.6,23.4-92,22.2c-92.5-3.1-167.5-78.2-170.5-170.7
			C73.6,167.3,157.3,83.6,259.4,86.9c92.1,3,167.1,77.4,170.7,169.5c1.5,38.5-9.4,74.4-28.9,104.1c-3.4,5.1-2.7,11.9,1.6,16.2h0
			c5.8,5.8,15.4,4.8,19.9-2c22-33.4,34.4-73.6,33.3-116.7c-2.8-106.6-89-193.4-195.6-196.9C145,57.3,49.9,150.6,51,265.4
			C52,374.5,140.6,464,249.8,466c37.1,0.7,72-8.7,102.2-25.6c7.4-4.2,8.8-14.3,2.8-20.4l0,0C350.7,416,344.4,415.1,339.4,417.9z"/>
		<path class="st0" d="M210.7,348.1c-4.2,0-8.3-1.1-12.1-3.3c-7.6-4.4-12.1-12.2-12.1-20.9V204.8c0-8.7,4.5-16.6,12.1-20.9
			c7.6-4.4,16.6-4.4,24.2,0l103.3,59.5c7.6,4.4,12.1,12.2,12.1,21c0,8.8-4.5,16.6-12.1,21l-103.3,59.5
			C219,347,214.9,348.1,210.7,348.1z M212.4,207.6V321l98.4-56.7L212.4,207.6z"/>
	</g>
</g>
<g id="Camada_2" class="st1">
	<path class="st2" d="M474.2,240L264.4,45.8c-6.9-6.4-17.5-6.4-24.4-0.1L26.6,240c-6,5.5-6.5,14.8-1,20.8l0,0c5.5,6,14.8,6.5,20.8,1
		l24.3-22.1v209h119.7h119.7h119.7V239.1l24.3,22.5c6,5.5,15.3,5.2,20.8-0.8l0,0C480.5,254.8,480.2,245.5,474.2,240z M220,419.2V291
		c0-4.4,3.6-8,8-8h44.7c4.4,0,8,3.6,8,8v128.2H220z M400.4,419.2h-90.2v-147c0-10.3-8.4-18.7-18.7-18.7h-82.3
		c-10.3,0-18.7,8.4-18.7,18.7v147h-90.2V212.8L242.8,82.9c5.2-4.8,13.2-4.7,18.4,0.1l139.2,128.8V419.2z"/>
</g>
<g id="Camada_3" class="st1">
	<g class="st3">
		<path class="st0" d="M59.4,180.1c1.1,128.3,99.4,241.2,228.6,262.5c24.6,4,49.2,7,74,1.4c46.8-10.5,82.1-52.8,83-99.1
			c0.2-7.7-2.7-12.3-10-15.2c-38.5-14.9-76.8-30-115.3-44.9c-9.8-3.8-14.8-1.6-18.8,8.1c-6,14.5-12,29.1-17.8,43.7
			c-1.5,3.9-3.5,5-7.8,4.7c-54.5-4.2-103.4-52-108-105.4c-0.4-4.8,1.3-6.4,5.4-7.9c14.7-5.5,29.4-11.3,44-17.1
			c10.2-4,12.3-9,8.2-19.1c-15.2-37.3-30.6-74.6-45.7-112c-2.9-7.2-7.5-10.2-15.4-10C104.7,72,57.1,120.3,59.4,180.1z M319,308.3
			c33.6,13.1,66.7,26,99.6,39.1c1.5,0.6,2.8,4.3,2.5,6.3c-4.3,34.5-33.5,64.1-69.1,69.6c-26,4-51.6,0-76.8-5.9
			C162.2,390.7,80.6,288.1,82,174.5c0.5-39.5,29.9-73.8,69-81.1c6.5-1.2,10.2-0.5,12.1,6.3c1.7,6.1,4.7,11.9,7.1,17.8
			c10.2,25,20.4,50,30.8,75.5c-15.6,6.1-30.6,12.1-45.7,18c-10.1,4-11.7,6.4-11.3,17.2c3,73.7,63.6,132.9,139,135.8
			c10.9,0.4,13.5-1.2,17.5-11.1C306.7,338.2,312.8,323.4,319,308.3z"/>
	</g>
</g>
</svg>
